<svg width="1616" height="400" viewBox="0 0 1616 400" fill="none" xmlns="http://www.w3.org/2000/svg">
<path d="M445.301 290.345H438.301V277.045H445.301V290.345ZM688.779 290.345H681.779V277.044H688.779V290.345ZM1541.7 290.345H1534.7V277.045H1541.7V290.345ZM1116.98 289.359H1109.98V276.06H1116.98V289.359ZM730.105 288.374H723.105V250.443H730.105V288.374ZM323.81 287.882H316.81V250.443H323.81V287.882ZM486.627 287.882H479.627V250.444H486.627V287.882ZM770.437 287.882H763.437V250.444H770.437V287.882ZM1034.83 287.882H1027.83V250.443H1034.83V287.882ZM1237.48 287.882H1230.48V250.443H1237.48V287.882ZM1277.81 287.882H1270.81V250.443H1277.81V287.882ZM1583.03 287.882H1576.03V250.444H1583.03V287.882ZM40 287.881H33V250.443H40V287.881ZM80.8291 287.881H73.8291V250.443H80.8291V287.881ZM141.574 287.881H134.574V250.443H141.574V287.881ZM181.407 287.881H174.407V250.443H181.407V287.881ZM526.958 287.881H519.958V250.443H526.958V287.881ZM567.787 287.881H560.787V250.443H567.787V287.881ZM1379.38 287.881H1372.38V250.443H1379.38V287.881ZM1420.21 287.881H1413.21V250.443H1420.21V287.881ZM472.671 287.441H452.755V280.441H472.671V287.441ZM858.055 287.441H777.393V280.441H858.055V287.441ZM1569.07 287.441H1549.16V280.441H1569.07V287.441ZM249.284 280.44H310.352V287.44H244.948L243.982 285.499L228.547 254.465L234.814 251.348L249.284 280.44ZM390.755 280.44H431.842V287.44H386.292L385.351 285.417L370.911 254.383L374.084 252.907L377.257 251.431L390.755 280.44ZM554.328 287.44H533.416V280.44H554.328V287.44ZM634.202 280.44H675.818V287.44H629.803L628.849 285.458L613.911 254.425L617.065 252.906L620.219 251.389L634.202 280.44ZM716.149 287.44H695.735V280.44H716.149V287.44ZM960.303 280.44H1021.37V287.44H955.967L955.001 285.499L939.565 254.465L945.833 251.348L960.303 280.44ZM1264.35 287.44H1243.94V280.44H1264.35V287.44ZM1406.75 287.44H1385.84V280.44H1406.75V287.44ZM1487.16 280.44H1528.24V287.44H1482.69L1481.75 285.417L1467.31 254.383L1470.49 252.907L1473.66 251.431L1487.16 280.44ZM66.374 286.94H46.458V280.94H66.374V286.94ZM167.948 286.94H148.032V280.94H167.948V286.94ZM1075.66 286.896H1068.66V249.459H1075.66V286.896ZM1102.53 286.456H1082.61V279.456H1102.53V286.456ZM1181.2 251.922L1184.37 253.397L1169.93 284.432L1168.99 286.455H1123.44V279.455H1164.53L1178.03 250.445L1181.2 251.922ZM876.478 252.907L879.688 254.299L866.245 285.332L863.033 283.941L859.822 282.55L873.266 251.516L876.478 252.907ZM770.437 246.011H763.437V208.08H770.437V246.011ZM730.105 246.01H723.105V208.079H730.105V246.01ZM1237.48 246.01H1230.48V208.079H1237.48V246.01ZM1277.81 246.01H1270.81V208.079H1277.81V246.01ZM364.639 245.519H357.639V208.08H364.639V245.519ZM486.627 245.519H479.627V208.08H486.627V245.519ZM811.266 245.519H804.266V208.08H811.266V245.519ZM851.596 245.519H844.596V208.08H851.596V245.519ZM892.425 245.519H885.425V208.08H892.425V245.519ZM1461.04 245.519H1454.04V208.08H1461.04V245.519ZM1583.03 245.519H1576.03V208.08H1583.03V245.519ZM40 245.518H33V208.08H40V245.518ZM80.8291 245.518H73.8291V208.08H80.8291V245.518ZM141.574 245.518H134.574V208.08H141.574V245.518ZM181.407 245.518H174.407V208.08H181.407V245.518ZM222.235 245.518H215.235V207.587H222.235V245.518ZM445.798 245.518H438.798V208.08H445.798V245.518ZM526.958 245.518H519.958V208.08H526.958V245.518ZM567.787 245.518H560.787V208.08H567.787V245.518ZM608.117 245.518H601.117V208.079H608.117V245.518ZM689.276 245.518H682.276V208.079H689.276V245.518ZM933.254 245.518H926.254V207.587H933.254V245.518ZM1379.38 245.518H1372.38V208.08H1379.38V245.518ZM1420.21 245.518H1413.21V208.08H1420.21V245.518ZM1542.2 245.518H1535.2V208.08H1542.2V245.518ZM431.842 245.077H411.926V238.077H431.842V245.077ZM652.915 216.014H647.889L645.461 219.917V234.597L647.807 238.077H652.915V245.077H644.082L643.042 243.533L639.059 237.622L638.461 236.735V217.918L638.989 217.069L642.973 210.665L643.999 209.014H652.915V216.014ZM838.138 245.077H817.724V238.077H838.138V245.077ZM1528.24 245.077H1508.33V238.077H1528.24V245.077ZM308.359 245.076H269.522V238.076H308.359V245.076ZM675.818 245.076H655.404V238.076H675.818V245.076ZM1019.38 245.076H980.541V238.076H1019.38V245.076ZM1075.66 244.533H1068.66V207.095H1075.66V244.533ZM1197.65 244.533H1190.65V207.095H1197.65V244.533ZM1116.49 244.532H1109.49V207.095H1116.49V244.532ZM1143.36 244.092H1123.44V237.092H1143.36V244.092ZM408.938 217.983H404.013L401.483 220.764V233.325L404.013 236.106H408.938V243.106H400.917L399.876 241.962L395.395 237.035L394.483 236.034V218.056L395.395 217.055L399.876 212.128L400.917 210.983H408.938V217.983ZM1505.34 217.983H1500.42L1497.89 220.764V233.325L1500.42 236.106H1505.34V243.106H1497.32L1496.28 241.962L1491.8 237.035L1490.89 236.034V218.056L1491.8 217.055L1496.28 212.128L1497.32 210.983H1505.34V217.983ZM1155.41 211.143L1159.89 216.069L1160.8 217.07V235.049L1159.89 236.05L1155.41 240.977L1154.37 242.121H1146.35V235.121H1151.27L1153.8 232.34V219.778L1151.27 216.998H1146.35V209.998H1154.37L1155.41 211.143ZM328.276 210.543L331.471 211.972L318.027 242.021L314.832 240.592L311.638 239.162L325.081 209.113L328.276 210.543ZM1039.29 210.543L1042.49 211.972L1029.05 242.021L1025.85 240.592L1022.66 239.162L1036.1 209.113L1039.29 210.543ZM730.105 203.646H723.105V165.716H730.105V203.646ZM486.627 203.154H479.627V165.716H486.627V203.154ZM770.437 203.154H763.437V165.716H770.437V203.154ZM811.266 203.154H804.266V165.716H811.266V203.154ZM851.596 203.154H844.596V165.716H851.596V203.154ZM892.425 203.154H885.425V165.716H892.425V203.154ZM1583.03 203.154H1576.03V165.716H1583.03V203.154ZM40 203.153H33V165.716H40V203.153ZM80.8291 203.153H73.8291V165.716H80.8291V203.153ZM141.574 203.153H134.574V165.716H141.574V203.153ZM181.407 203.153H174.407V165.716H181.407V203.153ZM526.958 203.153H519.958V165.716H526.958V203.153ZM567.787 203.153H560.787V165.716H567.787V203.153ZM1237.48 203.153H1230.48V165.716H1237.48V203.153ZM1339.05 203.153H1332.05V165.716H1339.05V203.153ZM1379.38 203.153H1372.38V165.716H1379.38V203.153ZM1420.21 203.153H1413.21V165.716H1420.21V203.153ZM289.937 202.713H269.522V195.713H289.937V202.713ZM431.842 202.713H411.926V195.713H431.842V202.713ZM675.818 202.713H655.404V195.713H675.818V202.713ZM1000.96 202.713H980.541V195.713H1000.96V202.713ZM1325.1 202.713H1284.27V195.713H1325.1V202.713ZM1528.24 202.713H1508.33V195.713H1528.24V202.713ZM330.957 199.719L327.778 201.183L324.6 202.647L309.164 169.15L315.521 166.221L330.957 199.719ZM1041.98 199.719L1038.8 201.183L1035.62 202.647L1020.18 169.15L1026.54 166.221L1041.98 199.719ZM247.116 167.686L250.33 169.071L235.891 202.568L232.677 201.183L229.463 199.798L243.902 166.301L247.116 167.686ZM958.135 167.686L961.349 169.071L946.909 202.568L943.695 201.183L940.481 199.798L954.921 166.301L958.135 167.686ZM389.021 168.18L392.246 169.541L378.305 202.546L375.08 201.184L371.856 199.821L385.798 166.817L389.021 168.18ZM1485.42 168.18L1488.65 169.541L1474.71 202.546L1471.48 201.184L1468.26 199.821L1482.2 166.817L1485.42 168.18ZM1075.66 202.169H1068.66V164.73H1075.66V202.169ZM632.998 168.179L636.197 169.6L621.758 202.111L618.559 200.69L615.36 199.27L629.8 166.758L632.998 168.179ZM105.074 194.728H110.79L121.869 166.411L125.128 167.687L128.388 168.962L116.438 199.503L115.567 201.728H100.369L99.4814 199.549L87.0332 169.008L93.5156 166.365L105.074 194.728ZM1143.36 201.728H1123.44V194.728H1143.36V201.728ZM1183.43 198.836L1180.2 200.198L1176.98 201.561L1163.04 168.556L1166.26 167.194L1169.49 165.832L1183.43 198.836ZM448.379 181.319L445.286 182.957L442.192 184.595L436.716 174.25L439.809 172.612L442.902 170.975L448.379 181.319ZM1544.78 181.319L1541.69 182.957L1538.59 184.595L1533.12 174.25L1536.21 172.612L1539.3 170.975L1544.78 181.319ZM691.889 181.379L688.765 182.957L685.641 184.536L680.164 173.699L683.288 172.12L686.411 170.541L691.889 181.379ZM1115.48 171.627L1118.57 173.265L1113.09 183.609L1110 181.972L1106.91 180.334L1112.38 169.989L1115.48 171.627ZM1277.81 183.449H1270.81V172.119H1277.81V183.449ZM445.798 161.283H438.798V123.353H445.798V161.283ZM486.627 161.283H479.627V123.353H486.627V161.283ZM1542.2 161.283H1535.2V123.353H1542.2V161.283ZM1583.03 161.283H1576.03V123.353H1583.03V161.283ZM770.437 160.79H763.437V123.353H770.437V160.79ZM40 160.789H33V123.352H40V160.789ZM181.407 160.789H174.407V123.352H181.407V160.789ZM431.842 160.35H391.512V153.35H431.842V160.35ZM553.83 160.35H533.416V153.35H553.83V160.35ZM837.64 160.35H817.724V153.35H837.64V160.35ZM1406.26 160.35H1385.84V153.35H1406.26V160.35ZM1528.24 160.35H1487.91V153.35H1528.24V160.35ZM310.352 160.349H249.108V153.349H310.352V160.349ZM530.927 131.778H525.611L523.971 132.995V150.568L526.5 153.349H531.923V160.349H523.404L522.363 159.204L517.882 154.278L516.971 153.276V129.473L518.385 128.423L522.368 125.468L523.297 124.778H530.927V131.778ZM565.124 125.422L569.298 128.378L570.774 129.424V153.276L569.863 154.278L565.382 159.204L564.341 160.349H555.822V153.349H561.245L563.774 150.568V133.044L561.987 131.778H556.32V124.778H564.216L565.124 125.422ZM675.818 160.349H634.99V153.349H675.818V160.349ZM716.149 160.349H695.735V153.349H716.149V160.349ZM1021.37 160.349H960.127V153.349H1021.37V160.349ZM1263.85 160.349H1243.94V153.349H1263.85V160.349ZM1325.1 160.349H1284.27V153.349H1325.1V160.349ZM1383.35 131.778H1378.04L1376.4 132.995V150.568L1378.92 153.349H1384.35V160.349H1375.83L1374.79 159.204L1370.31 154.278L1369.4 153.276V129.473L1370.81 128.423L1374.79 125.468L1375.72 124.778H1383.35V131.778ZM1417.55 125.422L1421.72 128.378L1423.2 129.424V147.489L1423.2 153.276L1422.29 154.278L1417.81 159.204L1416.77 160.349H1408.25V153.349H1413.67L1416.2 150.568L1416.2 147.49V133.044L1414.41 131.778H1408.75V124.778H1416.64L1417.55 125.422ZM1075.66 160.298H1068.66V122.367H1075.66V160.298ZM1116.49 160.298H1109.49V122.367H1116.49V160.298ZM879.656 157.355L876.478 158.819L873.299 160.284L857.863 126.787L864.221 123.857L879.656 157.355ZM1163.77 159.364H1123.44V152.364H1163.77V159.364ZM105.47 152.363H109.401L121.925 123.912L128.331 126.732L114.888 157.273L113.968 159.363H100.97L100.036 157.317L86.0947 126.775L92.4619 123.869L105.47 152.363ZM472.671 117.985H452.257V110.985H472.671V117.985ZM553.83 117.985H533.416V110.985H553.83V117.985ZM858.055 117.985H777.393V110.985H858.055V117.985ZM1406.26 117.985H1385.84V110.985H1406.26V117.985ZM1569.07 117.985H1548.66V110.985H1569.07V117.985ZM1103.03 117H1082.61V110H1103.03V117ZM87.2871 116.5H46.458V110.5H87.2871V116.5ZM167.949 116.5H127.12V110.5H167.949V116.5Z" fill="#00FF00"/>
</svg>
