<svg width="512" height="512" viewBox="0 0 512 512" fill="none" xmlns="http://www.w3.org/2000/svg">
<rect width="512" height="512" fill="white"/>
<path d="M214.099 180.294L244.908 250.35H270.789L300.366 180.294" stroke="#010101" stroke-width="20"/>
<path d="M211.634 83.1186L246.141 153.175H267.092L300.366 83.1186" stroke="#010101" stroke-width="20"/>
<path d="M81 456V370.124" stroke="#010101" stroke-width="20"/>
<path d="M81 358.825V272.949" stroke="#010101" stroke-width="20"/>
<path d="M182.056 358.825V272.949" stroke="#010101" stroke-width="20"/>
<path d="M182.056 261.65V175.774" stroke="#010101" stroke-width="20"/>
<path d="M81 164.475V78.5989" stroke="#010101" stroke-width="20"/>
<path d="M332.408 456V370.124" stroke="#010101" stroke-width="20"/>
<path d="M431 456V370.124" stroke="#010101" stroke-width="20"/>
<path d="M332.408 358.825V272.949" stroke="#010101" stroke-width="20"/>
<path d="M431 358.825V272.949" stroke="#010101" stroke-width="20"/>
<path d="M332.408 261.65V175.774" stroke="#010101" stroke-width="20"/>
<path d="M431 261.65V175.774" stroke="#010101" stroke-width="20"/>
<path d="M431 164.475V78.5989" stroke="#010101" stroke-width="20"/>
<path d="M206.704 56H105.648" stroke="#010101" stroke-width="20"/>
<path d="M406.352 56H305.296" stroke="#010101" stroke-width="20"/>
<path d="M154.944 446.96H105.648" stroke="#010101" stroke-width="20"/>
<path d="M406.352 446.96H357.056" stroke="#010101" stroke-width="20"/>
<path d="M81 261.65V175.774" stroke="#010101" stroke-width="20"/>
<path d="M182.056 456V370.124" stroke="#010101" stroke-width="20"/>
</svg>
