<svg width="512" height="512" viewBox="0 0 512 512" fill="none" xmlns="http://www.w3.org/2000/svg">
<rect width="512" height="512" fill="black"/>
<path d="M216.591 185.416L245.201 250.468H269.232L296.697 185.416" stroke="#00FF00" stroke-width="20"/>
<path d="M214.303 95.1816L246.345 160.234H265.799L296.697 95.1816" stroke="#00FF00" stroke-width="20"/>
<path d="M93 441.429V361.687" stroke="#00FF00" stroke-width="20"/>
<path d="M93 351.194V271.453" stroke="#00FF00" stroke-width="20"/>
<path d="M186.838 351.194V271.453" stroke="#00FF00" stroke-width="20"/>
<path d="M186.838 260.96V181.219" stroke="#00FF00" stroke-width="20"/>
<path d="M93 170.726V90.9847" stroke="#00FF00" stroke-width="20"/>
<path d="M326.451 441.429V361.687" stroke="#00FF00" stroke-width="20"/>
<path d="M418 441.429V361.687" stroke="#00FF00" stroke-width="20"/>
<path d="M326.451 351.194V271.453" stroke="#00FF00" stroke-width="20"/>
<path d="M418 351.194V271.453" stroke="#00FF00" stroke-width="20"/>
<path d="M326.451 260.96V181.219" stroke="#00FF00" stroke-width="20"/>
<path d="M418 260.96V181.219" stroke="#00FF00" stroke-width="20"/>
<path d="M418 170.726V90.9847" stroke="#00FF00" stroke-width="20"/>
<path d="M209.725 70H115.887" stroke="#00FF00" stroke-width="20"/>
<path d="M395.113 70H301.275" stroke="#00FF00" stroke-width="20"/>
<path d="M161.662 433.035H115.887" stroke="#00FF00" stroke-width="20"/>
<path d="M395.113 433.035H349.338" stroke="#00FF00" stroke-width="20"/>
<path d="M93 260.96V181.219" stroke="#00FF00" stroke-width="20"/>
<path d="M186.838 441.429V361.687" stroke="#00FF00" stroke-width="20"/>
</svg>
