<svg width="512" height="512" viewBox="0 0 512 512" fill="none" xmlns="http://www.w3.org/2000/svg">
<path d="M167 405.675H157V352.187H167V405.675ZM221.748 405.675H211.748V352.187H221.748V405.675ZM301.078 405.675H291.078V352.187H301.078V405.675ZM354.709 405.675H344.709V352.187H354.709V405.675ZM206.692 405.35H174.849V401.35H206.692V405.35ZM339.095 405.35H307.251V401.35H339.095V405.35ZM167 330.093H157V277.768H167V330.093ZM220.631 330.093H210.631V277.768H220.631V330.093ZM301.078 330.093H291.078V277.768H301.078V330.093ZM354.709 330.093H344.709V277.768H354.709V330.093ZM301.078 256.838H291.078V202.187H301.078V256.838ZM167.082 255.666L157.082 255.683L157 202.194L167 202.178L167.082 255.666ZM220.714 255.666L210.714 255.683L210.631 202.194L220.631 202.178L220.714 255.666ZM354.709 255.675H344.709V202.187H354.709V255.675ZM278.759 206.838L282.022 208.102L266.939 247.055L266.073 249.291H247.869L247.004 247.055L231.92 208.102L235.184 206.838L238.447 205.573L252.665 242.291H261.277L275.495 205.573L278.759 206.838ZM167 184.744H157V131.256H167V184.744ZM355.826 184.744H345.826V131.256H355.826V184.744ZM279.317 135.907L282.578 137.18L268.053 174.39L267.184 176.616H247.876L247.007 174.39L232.481 137.18L239.003 134.635L252.658 169.616H262.401L276.058 134.635L279.317 135.907ZM232.391 110H174.29V106H232.391V110ZM340.771 110H282.67V106H340.771V110Z" fill="#1EB119"/>
</svg>
